HIERARCHY
ROOT Hips
{
	OFFSET 0.000000 0.000000 0.000000
	CHANNELS 6 Xposition Yposition Zposition Zrotation Yrotation Xrotation 
	JOINT LHipJoint
	{
		OFFSET 0.000000 0.000000 0.000000
		CHANNELS 3 Zrotation Yrotation Xrotation
		JOINT LeftUpLeg
		{
			OFFSET 1.363060 -1.794630 0.839290
			CHANNELS 3 Zrotation Yrotation Xrotation
			JOINT LeftLeg
			{
				OFFSET 2.448110 -6.726130 0.000000
				CHANNELS 3 Zrotation Yrotation Xrotation
				JOINT LeftFoot
				{
					OFFSET 2.562200 -7.039590 0.000000
					CHANNELS 3 Zrotation Yrotation Xrotation
					JOINT LeftToeBase
					{
						OFFSET 0.157640 -0.433110 2.322550
						CHANNELS 3 Zrotation Yrotation Xrotation
						End Site
						{
							OFFSET 0.000000 0.000000 0.000000
						}
					}
				}
			}
		}
	}
	JOINT RHipJoint
	{
		OFFSET 0.000000 0.000000 0.000000
		CHANNELS 3 Zrotation Yrotation Xrotation
		JOINT RightUpLeg
		{
			OFFSET -1.305520 -1.794630 0.839290
			CHANNELS 3 Zrotation Yrotation Xrotation
			JOINT RightLeg
			{
				OFFSET -2.542530 -6.985550 0.000000
				CHANNELS 3 Zrotation Yrotation Xrotation
				JOINT RightFoot
				{
					OFFSET -2.568260 -7.056230 0.000000
					CHANNELS 3 Zrotation Yrotation Xrotation
					JOINT RightToeBase
					{
						OFFSET -0.164730 -0.452590 2.363150
						CHANNELS 3 Zrotation Yrotation Xrotation
						End Site
						{
							OFFSET 0.000000 0.000000 0.000000
						}
					}
				}
			}
		}
	}
}
MOTION
Frames: 33
Frame Time: 0.008333
1.904086 16.841692 4.956256 4.774795 21.667317 -0.818393 -12.095958 5.937411 -0.795725 5.654696 22.644296 12.382647 -0.006323 1.846386 23.122507 1.578393 7.152661 22.684011 2.763501 0.000000 -88.142700 8.484397 -1.151783 -1.900360 15.136156 -21.870793 -23.505131 2.118362 -0.989451 27.143009 -3.836800 -14.725498 -19.253076 -177.303300 -0.000000 -8.919800
1.918155 16.839722 5.096307 4.658772 21.513856 -0.845680 -12.160366 5.959592 -0.682973 5.964239 22.159175 12.431430 0.069479 1.864089 23.525671 1.635187 6.832121 24.030941 2.689900 -0.000000 -88.274200 8.427809 -1.224325 -1.897949 15.274306 -21.722830 -23.015405 2.110857 -0.995831 27.315133 -3.861902 -14.775937 -19.526339 -177.206000 -0.000001 -9.646100
1.929652 16.837869 5.235450 4.548276 21.359144 -0.862004 -12.210818 5.970470 -0.570026 6.184900 21.583861 12.430015 0.143510 1.882605 24.026112 1.701936 6.614665 25.314521 2.651300 0.000000 -87.828000 8.377521 -1.288262 -1.894256 15.406219 -21.519592 -22.480127 2.099382 -0.995756 27.434666 -3.907557 -14.899857 -19.859648 -177.080100 0.000000 -10.297800
1.938486 16.836051 5.373124 4.449481 21.207920 -0.868321 -12.245483 5.969322 -0.458642 6.306723 20.919054 12.371442 0.214207 1.903165 24.644327 1.776644 6.522692 26.494646 2.663900 -0.000000 -86.684200 8.336231 -1.342237 -1.892445 15.522646 -21.276892 -21.907963 2.084186 -0.991334 27.515552 -3.969611 -15.082792 -20.243155 -176.929100 -0.000001 -10.872901
1.944664 16.834228 5.508829 4.366773 21.062568 -0.865797 -12.263694 5.955858 -0.351090 6.326129 20.173649 12.249036 0.280068 1.927009 25.395321 1.857050 6.578230 27.528895 2.743900 0.000000 -84.844200 8.305746 -1.385855 -1.895004 15.617408 -21.010371 -21.308147 2.065784 -0.984402 27.568786 -4.043087 -15.307547 -20.662187 -176.758400 -0.000000 -11.367900
1.948305 16.832390 5.642152 4.302201 20.923647 -0.856129 -12.265850 5.930216 -0.250563 6.247689 19.366434 12.052320 0.339391 1.955880 26.297581 1.939575 6.790487 28.360563 2.899400 -0.000000 -82.241600 8.287041 -1.419538 -1.903631 15.687202 -20.735218 -20.691313 2.045051 -0.976595 27.604269 -4.122577 -15.554928 -21.101127 -176.574801 0.000000 -11.785500
1.949594 16.830570 5.772758 4.255359 20.789275 -0.841044 -12.253811 5.892967 -0.160255 6.082581 18.521918 11.773341 0.391437 1.991187 27.355629 2.021691 7.167973 28.945932 3.135900 0.000000 -78.971101 8.279678 -1.444626 -1.918960 15.733250 -20.462748 -20.066281 2.023030 -0.968928 27.626337 -4.202916 -15.806828 -21.542118 -176.386300 0.000000 -12.124900
1.948782 16.828775 5.900385 4.223529 20.655507 -0.822421 -12.230329 5.845075 -0.083424 5.847650 17.669433 11.403738 0.436033 2.034293 28.569034 2.100930 7.706431 29.245178 3.448800 -0.000000 -75.117400 8.282316 -1.463057 -1.940803 15.759723 -20.201593 -19.440486 2.000977 -0.961998 27.636756 -4.279529 -16.046637 -21.969665 -176.200801 0.000000 -12.388500
1.946199 16.827064 6.024878 4.202146 20.517244 -0.801997 -12.198817 5.787651 -0.022671 5.562315 16.838151 10.936911 0.473899 2.086035 29.928175 2.175873 8.395179 29.232807 3.825900 0.000000 -70.843800 8.292777 -1.477082 -1.968165 15.773328 -19.956913 -18.819906 1.980254 -0.955861 27.633381 -4.348702 -16.260287 -22.370491 -176.025700 0.000000 -12.578400
1.942138 16.825505 6.146216 4.185954 20.368448 -0.780548 -12.162640 5.721642 0.021189 5.242639 16.049285 10.371677 0.506692 2.146060 31.407859 2.247309 9.226541 28.912004 4.255201 0.000000 -66.485500 8.308664 -1.488920 -1.999783 15.781108 -19.731037 -18.207438 1.962052 -0.950185 27.611278 -4.407842 -16.437741 -22.734021 -175.867400 0.000001 -12.693700
1.936866 16.824170 6.264485 4.170071 20.202899 -0.758372 -12.124874 5.647940 0.047999 4.904485 15.320773 9.708390 0.535977 2.213477 32.981682 2.316135 10.180770 28.295602 4.715700 -0.000000 -62.282500 8.327535 -1.500573 -2.033992 15.790807 -19.523527 -17.604430 1.947447 -0.944286 27.563697 -4.455427 -16.572045 -23.054144 -175.730400 -0.000001 -12.737700
1.930650 16.823140 6.379851 4.149262 20.014529 -0.735299 -12.088169 5.567500 0.057845 4.563856 14.669452 8.946911 0.562793 2.287252 34.626831 2.382172 11.222994 27.392298 5.175300 -0.000000 -58.275600 8.347098 -1.513890 -2.068623 15.809502 -19.331781 -17.010901 1.937300 -0.937310 27.483830 -4.491038 -16.660012 -23.328790 -175.617000 -0.000000 -12.715300
1.923668 16.822513 6.492560 4.120401 19.798617 -0.710158 -12.054101 5.480853 0.052351 4.229416 14.101247 8.092379 0.588091 2.365402 36.311353 2.446626 12.327131 26.230298 5.608601 -0.000000 -54.597100 8.365744 -1.530081 -2.101899 15.842117 -19.152415 -16.425060 1.932066 -0.928358 27.364760 -4.514989 -16.701587 -23.557892 -175.528200 0.000000 -12.627500
1.916028 16.822378 6.602845 4.082340 19.552028 -0.681345 -12.022816 5.388015 0.035229 3.900501 13.608074 7.156454 0.612712 2.444877 37.995038 2.512735 13.480454 24.868528 6.003400 0.000000 -51.575600 8.383025 -1.549466 -2.132681 15.889642 -18.982644 -15.844510 1.931886 -0.916605 27.200554 -4.527902 -16.698106 -23.743390 -175.463700 -0.000001 -12.474900
1.907798 16.822836 6.711069 4.034531 19.272637 -0.646725 -11.994265 5.289771 0.008288 3.582411 13.191343 6.143712 0.635969 2.524084 39.656900 2.579069 14.640874 23.319543 6.327100 -0.000000 -49.006400 8.398519 -1.572514 -2.159126 15.953273 -18.818565 -15.267719 1.936727 -0.901356 26.987954 -4.530836 -16.652573 -23.889088 -175.421900 -0.000000 -12.260000
1.899038 16.823962 6.817519 3.977476 18.960066 -0.604350 -11.967500 5.186476 -0.025353 3.273366 12.841993 5.063650 0.657152 2.600827 41.269857 2.645654 15.780306 21.618402 6.561400 -0.000000 -46.867199 8.412569 -1.599067 -2.180248 16.031660 -18.657235 -14.692913 1.946232 -0.882164 26.725437 -4.524945 -16.569360 -23.998365 -175.401000 0.000000 -11.983900
1.889772 16.825815 6.922459 3.913455 18.615087 -0.551933 -11.941085 5.078559 -0.062180 2.968801 12.547245 3.926666 0.675249 2.672952 42.808742 2.712245 16.873608 19.804492 6.694400 -0.000000 -45.142800 8.426007 -1.628625 -2.195361 16.121760 -18.496359 -14.119515 1.959892 -0.858855 26.414282 -4.511077 -16.451940 -24.074457 -175.399301 -0.000000 -11.648600
1.879987 16.828435 7.026132 3.845464 18.238841 -0.487607 -11.913162 4.966541 -0.098886 2.662755 12.292737 2.743708 0.689056 2.738636 44.251996 2.778015 17.897508 17.916001 6.720100 -0.000000 -43.790300 8.440267 -1.660364 -2.204434 16.218278 -18.335626 -13.547943 1.977104 -0.831577 26.058511 -4.489620 -16.302534 -24.119810 -175.415300 -0.000000 -11.256200
1.869765 16.831899 7.128720 3.774804 17.832872 -0.410696 -11.882711 4.851002 -0.133027 2.353183 12.067180 1.523513 0.697190 2.796810 45.586738 2.840473 18.823262 15.973363 6.630600 -0.000001 -42.612300 8.455668 -1.693952 -2.206770 16.319229 -18.170775 -12.977560 1.997109 -0.800477 25.661017 -4.461542 -16.126348 -24.135268 -175.447500 0.000000 -10.815600
1.859115 16.836164 7.230379 3.705906 17.398549 -0.320221 -11.847604 4.732500 -0.161535 2.031167 11.853018 0.278778 0.698756 2.846022 46.795231 2.899118 19.641257 14.025533 6.438500 -0.000000 -41.668400 8.474400 -1.727970 -2.203587 16.416249 -18.004210 -12.410694 2.019202 -0.766299 25.230822 -4.426225 -15.922215 -24.121763 -175.495500 0.000000 -10.327000
1.848109 16.841280 7.331200 3.640411 16.936400 -0.217102 -11.806990 4.611775 -0.183030 1.695389 11.640632 -0.981967 0.692572 2.886060 47.873026 2.950752 20.329181 12.081570 6.144900 0.000000 -40.701001 8.496926 -1.761974 -2.194710 16.506152 -17.832602 -11.846908 2.042596 -0.729538 24.772985 -4.384103 -15.693496 -24.079170 -175.558300 -0.000000 -9.803500
1.836818 16.847212 7.431228 3.581191 16.446150 -0.102259 -11.759853 4.489291 -0.195880 1.341756 11.417385 -2.248152 0.678138 2.916367 48.812165 2.994209 20.882067 10.174260 5.768000 0.000001 -39.735100 8.524341 -1.794927 -2.181004 16.583395 -17.654936 -11.286872 2.066520 -0.690923 24.294747 -4.334960 -15.440843 -24.007241 -175.635500 0.000000 -9.252200
1.825329 16.853960 7.530519 3.529811 15.927256 0.022316 -11.705691 4.365536 -0.199259 0.969463 11.174331 -3.510669 0.655006 2.936925 49.610382 3.027736 21.294192 8.318254 5.322600 0.000000 -38.638200 8.557113 -1.826188 -2.162949 16.644222 -17.468881 -10.729926 2.090274 -0.651105 23.801922 -4.278988 -15.166189 -23.906487 -175.726100 0.000001 -8.684800
1.813729 16.861463 7.629043 3.488573 15.378392 0.154144 -11.643897 4.240836 -0.192584 0.576508 10.902279 -4.759335 0.623277 2.947700 50.264964 3.051094 21.572179 6.536431 4.831400 0.000000 -37.429000 8.596214 -1.854844 -2.141928 16.682871 -17.275133 -10.175929 2.113300 -0.610947 23.302104 -4.215725 -14.868410 -23.777988 -175.829400 0.000000 -8.112900
1.802073 16.869654 7.726947 3.457450 14.797372 0.293988 -11.575004 4.115249 -0.175469 0.166680 10.596168 -5.990233 0.583125 2.948690 50.775716 3.063390 21.717992 4.844009 4.313201 -0.000000 -36.195600 8.640626 -1.880313 -2.116998 16.701318 -17.063787 -9.623492 2.134838 -0.570182 22.793362 -4.146977 -14.555293 -23.622465 -175.943000 0.000000 -7.535500
1.790476 16.878504 7.824114 3.438207 14.183555 0.436907 -11.498576 3.989089 -0.148142 -0.260048 10.251065 -7.193616 0.534800 2.940379 51.145539 3.065238 21.745304 3.241130 3.784100 -0.000001 -34.838900 8.691387 -1.902148 -2.089989 16.692928 -16.839998 -9.071244 2.154612 -0.529870 22.284366 -4.071986 -14.223594 -23.443360 -176.066100 0.000000 -6.968800
1.779017 16.887920 7.920639 3.431264 13.535811 0.582293 -11.414995 3.862323 -0.110522 -0.700435 9.863650 -8.365321 0.478793 2.922910 51.376154 3.057337 21.666464 1.734182 3.259700 0.000000 -33.444000 8.747991 -1.919959 -2.060874 16.657483 -16.600168 -8.518087 2.172216 -0.489973 21.775057 -3.991823 -13.877211 -23.243420 -176.196400 -0.000000 -6.411400
1.767725 16.897814 8.016537 3.437357 12.854354 0.728599 -11.324482 3.734996 -0.062495 -1.151657 9.431539 -9.500746 0.415705 2.896470 51.470395 3.041049 21.497550 0.324638 2.752400 -0.000000 -32.074500 8.810294 -1.933640 -2.030021 16.593574 -16.344777 -7.963143 2.187402 -0.450667 21.267076 -3.907147 -13.518130 -23.026119 -176.332200 -0.000000 -5.861300
1.756654 16.908092 8.111851 3.456943 12.140202 0.874872 -11.227310 3.607063 -0.003972 -1.610549 8.953205 -10.596584 0.346243 2.861228 51.431481 3.018134 21.256030 -0.987609 2.271900 0.000000 -30.806700 8.878143 -1.943208 -1.997989 16.500002 -16.076191 -7.406669 2.200097 -0.412076 20.761786 -3.818418 -13.147374 -22.794723 -176.471700 0.000000 -5.311900
1.745870 16.918641 8.206665 3.489983 11.394807 1.020617 -11.123949 3.478544 0.064890 -2.072830 8.429106 -11.651023 0.270897 2.817524 51.264336 2.990346 20.957646 -2.210262 1.822300 -0.000000 -29.661100 8.951033 -1.948883 -1.965327 16.377272 -15.797396 -6.848976 2.210330 -0.374213 20.259836 -3.726163 -12.766154 -22.552163 -176.613600 0.000000 -4.754200
1.735450 16.929352 8.301047 3.536211 10.620723 1.165333 -11.014957 3.349416 0.144075 -2.534803 7.861205 -12.662836 0.190461 2.765543 50.973582 2.959881 20.620280 -3.346370 1.407600 0.000000 -28.685900 9.028528 -1.951203 -1.932544 16.225313 -15.513422 -6.291360 2.218269 -0.337168 19.762424 -3.630635 -12.374640 -22.300875 -176.756600 0.000000 -4.177701
1.725399 16.940118 8.395069 3.595034 9.820898 1.308562 -10.901105 3.219598 0.233152 -2.991480 7.253981 -13.632451 0.105768 2.705614 50.565369 2.928989 20.261246 -4.400348 1.029300 -0.000000 -27.895199 9.109893 -1.950791 -1.900049 16.045751 -15.228847 -5.735309 2.224089 -0.300972 19.270156 -3.532217 -11.973755 -22.042412 -176.900100 0.000000 -3.573900
1.715762 16.950834 8.488840 3.666049 8.998498 1.449475 -10.783068 3.089164 0.331577 -3.439369 6.614708 -14.560517 0.017954 2.637967 50.045964 2.900157 19.899301 -5.371998 0.689001 -0.000000 -27.302700 9.194856 -1.948612 -1.868394 15.838515 -14.951451 -5.183619 2.228194 -0.265980 18.786573 -3.430590 -11.561270 -21.778499 -177.043600 -0.000000 -2.934200
